<svg width="55" height="55" viewBox="0 0 55 55" fill="none" xmlns="http://www.w3.org/2000/svg">
<path d="M29.872 18.5647H34.8744L26.8977 8.87094L18.9211 18.5647H23.9102" stroke="#45455D"/>
<path d="M23.9412 18.3333V31.3441H29.7647V18.3333" stroke="#45455D"/>
<path d="M15.4803 25.7729H20.4827L12.5061 16.0791L4.5294 25.7729H9.51851" stroke="#45455D"/>
<path d="M9.38434 26.0215C8.01506 30.1067 8.16216 32.9271 9.38434 38.4409H15.5294C14.2685 33.5911 14.2286 30.8712 15.5294 26.0215" stroke="#45455D"/>
<path d="M38.3151 25.7729H33.3127L41.2894 16.0791L49.2661 25.7729H44.2769" stroke="#45455D"/>
<path d="M44.5185 26.0215C45.6063 29.0836 45.4976 32.04 44.5185 38.4409H38.1765C39.4778 33.5911 39.519 30.8712 38.1765 26.0215" stroke="#45455D"/>
<circle cx="27.5" cy="27.5" r="27" stroke="#45455D"/>
<line x1="23.9412" y1="31.2527" x2="14.2353" y2="31.2527" stroke="#45455D"/>
<line x1="54.3529" y1="31.2527" x2="44.6471" y2="31.2527" stroke="#45455D"/>
<line x1="8.41176" y1="31.2527" x2="-6.67572e-06" y2="31.2527" stroke="#45455D"/>
<line x1="39.4706" y1="31.2527" x2="29.7647" y2="31.2527" stroke="#45455D"/>
</svg>
