<svg width="55" height="57" viewBox="0 0 55 57" fill="none" xmlns="http://www.w3.org/2000/svg">
<path d="M23.2941 43.8643C28.5601 50.003 39.4149 48.3668 44.4133 42.5585" stroke="#45455D"/>
<path d="M23.2941 37.0324C26.9352 41.3318 37.3479 42.228 41.0524 37.8952" stroke="#45455D"/>
<path d="M23.2941 36.776V43.8643" stroke="#45455D"/>
<path d="M28.8452 32.9649L28.7969 22.9725L42.6083 24.331L38.8316 26.7611C44.0018 27.9798 44.7148 41.0212 44.0192 42.7446C43.9341 41.7044 41.0493 34.8064 32.0222 30.1977L28.8452 32.9649Z" stroke="#45455D"/>
<path d="M23.2941 43.8643C28.5601 50.003 39.4149 48.3668 44.4133 42.5585" stroke="#45455D"/>
<path d="M23.2941 37.0324C26.9352 41.3318 37.3479 42.228 41.0524 37.8952" stroke="#45455D"/>
<path d="M23.2941 36.776V43.8643" stroke="#45455D"/>
<path d="M28.8452 32.9649L28.7969 22.9725L42.6083 24.331L38.8316 26.7611C44.0018 27.9798 44.7148 41.0212 44.0192 42.7446C43.9341 41.7044 41.0493 34.8064 32.0222 30.1977L28.8452 32.9649Z" stroke="#45455D"/>
<path d="M30.1019 13.6417C25.8042 7.31577 15.8084 7.78176 10.8034 12.7738" stroke="#45455D"/>
<path d="M29.5583 20.0986C26.5912 15.6727 17.1986 13.7894 13.487 17.5157" stroke="#45455D"/>
<path d="M29.5379 20.341L30.1019 13.6417" stroke="#45455D"/>
<path d="M24.1894 23.3904L23.4383 32.8393L10.9936 30.1806L14.6195 28.2598C10.0174 26.5934 10.407 14.1968 11.1763 12.6372C11.1709 13.6287 13.2439 20.4353 21.0818 25.6896L24.1894 23.3904Z" stroke="#45455D"/>
<path d="M54.5 28.1111C54.5 43.3707 42.4014 55.7222 27.5 55.7222C12.5986 55.7222 0.5 43.3707 0.5 28.1111C0.5 12.8515 12.5986 0.5 27.5 0.5C42.4014 0.5 54.5 12.8515 54.5 28.1111Z" stroke="#45455D"/>
</svg>
