<svg width="55" height="55" viewBox="0 0 55 55" fill="none" xmlns="http://www.w3.org/2000/svg">
<circle cx="27.5" cy="27.5" r="27" stroke="#45455D"/>
<circle cx="27.5" cy="27.5" r="27" stroke="#45455D"/>
<path d="M10.3889 39.6635C18.5763 48.3655 35.4529 46.0461 43.2242 37.8125" stroke="#45455D"/>
<path d="M10.3889 29.9789C16.0499 36.0735 32.2393 37.3439 37.9988 31.2019" stroke="#45455D"/>
<path d="M10.3889 29.6154V39.6634" stroke="#45455D"/>
<path d="M19.0196 24.213L18.9445 10.0481L40.4179 11.9739L34.546 15.4187C42.5844 17.1462 43.6931 35.6332 42.6115 38.0763C42.4793 36.6017 37.9941 26.8234 23.959 20.2902L19.0196 24.213Z" stroke="#45455D"/>
<path d="M10.3889 39.6635C18.5763 48.3655 35.4529 46.0461 43.2242 37.8125" stroke="#45455D"/>
<path d="M10.3889 29.9789C16.0499 36.0735 32.2393 37.3439 37.9988 31.2019" stroke="#45455D"/>
<path d="M10.3889 29.6154V39.6634" stroke="#45455D"/>
<path d="M19.0196 24.213L18.9445 10.0481L40.4179 11.9739L34.546 15.4187C42.5844 17.1462 43.6931 35.6332 42.6115 38.0763C42.4793 36.6017 37.9941 26.8234 23.959 20.2902L19.0196 24.213Z" stroke="#45455D"/>
<line x1="28" x2="28" y2="11.1058" stroke="black"/>
<line x1="27.3889" y1="22.2115" x2="27.3889" y2="35.4327" stroke="black"/>
<line x1="27.3889" y1="44.9519" x2="27.3889" y2="54.4712" stroke="black"/>
</svg>
